# xmcd
#
# Track frame offsets:
#	150
#	15011
#	30866
#	46494
#	61308
#	76762
#	99342
#	113518
#	129911
#	147905
#	161256
#	179454
#
# Disc length: 2558 seconds
#
# Revision: 0
# Processed by: cddbd v1.5.2PL0 Copyright (c) Steve Scherf et al.
# Submitted via: EZCDAudioConverter 1.0.2.1
#
DISCID=7c09fc0c
DTITLE=Kent H - It's all about love
DYEAR=1900
DGENRE=country
TTITLE0=It's all about love
TTITLE1=I walk lonesome in the night
TTITLE2=Daddy's hands
TTITLE3=Love at first sight
TTITLE4=My baby's gotten good at goodbye
TTITLE5=The demon won
TTITLE6=I guess
TTITLE7=One more day
TTITLE8=I believe in angels
TTITLE9=Try to remember
TTITLE10=When I'm down
TTITLE11=Daddy's little girl
EXTD=
EXTT0=
EXTT1=
EXTT2=
EXTT3=
EXTT4=
EXTT5=
EXTT6=
EXTT7=
EXTT8=
EXTT9=
EXTT10=
EXTT11=
PLAYORDER=
